<?xml version="1.0" encoding="UTF-8"?>
<svg version="1.1" xmlns="http://www.w3.org/2000/svg" width="512" height="512">
<path d="M0 0 C0.90202148 0.19867676 1.80404297 0.39735352 2.73339844 0.60205078 C29.86589848 6.73511674 56.51317429 17.38072794 79 34 C80.04929687 34.76699219 81.09859375 35.53398438 82.1796875 36.32421875 C89.91064207 42.07050695 97.05195207 48.33694355 104 55 C104.79688232 55.75603516 104.79688232 55.75603516 105.60986328 56.52734375 C113.90232247 64.42820774 121.25973233 72.73850512 128 82 C128.41314453 82.56348145 128.82628906 83.12696289 129.25195312 83.70751953 C146.46983398 107.49466317 158.14198281 135.29043827 164 164 C164.16226074 164.73992187 164.32452148 165.47984375 164.49169922 166.2421875 C169.8256019 191.34290601 169.67085925 221.98300186 164 247 C163.70198486 248.35303223 163.70198486 248.35303223 163.39794922 249.73339844 C157.26488326 276.86589848 146.61927206 303.51317429 130 326 C129.23300781 327.04929687 128.46601563 328.09859375 127.67578125 329.1796875 C121.92949305 336.91064207 115.66305645 344.05195207 109 351 C108.49597656 351.53125488 107.99195313 352.06250977 107.47265625 352.60986328 C99.57179226 360.90232247 91.26149488 368.25973233 82 375 C81.15477783 375.6197168 81.15477783 375.6197168 80.29248047 376.25195312 C56.50533683 393.46983398 28.70956173 405.14198281 0 411 C-0.73992187 411.16226074 -1.47984375 411.32452148 -2.2421875 411.49169922 C-27.34290601 416.8256019 -57.98300186 416.67085925 -83 411 C-84.35303223 410.70198486 -84.35303223 410.70198486 -85.73339844 410.39794922 C-112.86589848 404.26488326 -139.51317429 393.61927206 -162 377 C-163.04929687 376.23300781 -164.09859375 375.46601563 -165.1796875 374.67578125 C-172.91064207 368.92949305 -180.05195207 362.66305645 -187 356 C-187.79688232 355.24396484 -187.79688232 355.24396484 -188.60986328 354.47265625 C-196.90232247 346.57179226 -204.25973233 338.26149488 -211 329 C-211.41314453 328.43651855 -211.82628906 327.87303711 -212.25195312 327.29248047 C-229.46983398 303.50533683 -241.14198281 275.70956173 -247 247 C-247.16226074 246.26007813 -247.32452148 245.52015625 -247.49169922 244.7578125 C-252.8256019 219.65709399 -252.67085925 189.01699814 -247 164 C-246.80132324 163.09797852 -246.60264648 162.19595703 -246.39794922 161.26660156 C-240.26488326 134.13410152 -229.61927206 107.48682571 -213 85 C-212.23300781 83.95070313 -211.46601563 82.90140625 -210.67578125 81.8203125 C-204.92949305 74.08935793 -198.66305645 66.94804793 -192 60 C-191.49597656 59.46874512 -190.99195313 58.93749023 -190.47265625 58.39013672 C-182.57179226 50.09767753 -174.26149488 42.74026767 -165 36 C-164.43651855 35.58685547 -163.87303711 35.17371094 -163.29248047 34.74804688 C-139.50533683 17.53016602 -111.70956173 5.85801719 -83 0 C-82.26007813 -0.16226074 -81.52015625 -0.32452148 -80.7578125 -0.49169922 C-55.65709399 -5.8256019 -25.01699814 -5.67085925 0 0 Z " fill="#639FE6" transform="translate(297,49)"/>
<path d="M0 0 C4.90693633 1.61023736 8.67961242 4.43845519 12.8125 7.4375 C14.3170611 8.51522706 15.82228723 9.59202622 17.328125 10.66796875 C18.47958008 11.49240479 18.47958008 11.49240479 19.65429688 12.33349609 C23.42804724 15.01455562 27.24332098 17.63423655 31.0625 20.25 C32.10724487 20.96627563 32.10724487 20.96627563 33.1730957 21.69702148 C34.78141876 22.79895638 36.39060419 23.89963247 38 25 C37.39524816 28.05653936 36.45311877 30.07979068 34.62109375 32.58984375 C33.86953003 33.6267334 33.86953003 33.6267334 33.1027832 34.68457031 C32.55323975 35.42803711 32.00369629 36.17150391 31.4375 36.9375 C30.86539795 37.72092773 30.2932959 38.50435547 29.70385742 39.31152344 C24.47738322 46.43337407 19.11035281 53.4477447 13.73632812 60.45849609 C9.64781274 65.80175595 5.6610855 71.19536704 1.78735352 76.69555664 C-1.79673454 81.76480905 -5.51610469 86.7278883 -9.25 91.6875 C-14.21992576 98.28904287 -19.16555655 104.90660094 -24.0625 111.5625 C-24.63726074 112.34343018 -25.21202148 113.12436035 -25.80419922 113.92895508 C-28.68204781 117.84164925 -31.55532886 121.75765875 -34.42578125 125.67578125 C-40.61925938 134.11879809 -46.88380562 142.49873554 -53.25 150.8125 C-58.01248628 157.03258038 -62.69691002 163.28514039 -67.20849609 169.68920898 C-72.67484828 177.41980444 -78.42214779 184.94489976 -84.12060547 192.50488281 C-87.0659334 196.41515191 -90.00152817 200.33270425 -92.9375 204.25 C-93.9257317 205.5677455 -94.91400761 206.88545783 -95.90234375 208.203125 C-96.59457031 209.12609375 -97.28679687 210.0490625 -98 211 C-101.16617946 210.39573397 -103.12176905 209.38858119 -105.65234375 207.41015625 C-106.33973633 206.87817627 -107.02712891 206.34619629 -107.73535156 205.7980957 C-108.82541504 204.93897583 -108.82541504 204.93897583 -109.9375 204.0625 C-110.69385742 203.4749292 -111.45021484 202.8873584 -112.22949219 202.28198242 C-113.76742024 201.0869883 -115.30340565 199.8894897 -116.83740234 198.68945312 C-119.7946178 196.37923288 -122.77198169 194.09578595 -125.75 191.8125 C-127.83343354 190.20846348 -129.91676788 188.6042981 -132 187 C-134.16644651 185.33304708 -136.33322497 183.66652587 -138.5 182 C-139.58333938 181.16667453 -140.66667272 180.3333412 -141.75 179.5 C-142.28625 179.0875 -142.8225 178.675 -143.375 178.25 C-149.33333333 173.66666667 -155.29166667 169.08333333 -161.25 164.5 C-161.78689453 164.0870166 -162.32378906 163.6740332 -162.87695312 163.24853516 C-163.95382451 162.42014763 -165.03064789 161.59169772 -166.10742188 160.76318359 C-168.9142207 158.60364959 -171.72199335 156.44539851 -174.53125 154.2890625 C-175.40233398 153.62003906 -175.40233398 153.62003906 -176.29101562 152.9375 C-177.90209218 151.7001932 -179.51353429 150.46336243 -181.125 149.2265625 C-183.77166395 147.17683634 -186.39259837 145.09934175 -189 143 C-188.46067405 138.78715202 -185.91125863 136.04803485 -183.3125 132.875 C-182.31659902 131.6402168 -181.3218679 130.40448942 -180.328125 129.16796875 C-179.79380859 128.50458496 -179.25949219 127.84120117 -178.70898438 127.15771484 C-176.86940989 124.83512066 -175.07998279 122.47947086 -173.296875 120.11328125 C-172.67643311 119.29553223 -172.05599121 118.4777832 -171.41674805 117.63525391 C-170.19467066 116.02201521 -168.97979097 114.40329494 -167.77270508 112.77880859 C-167.20962646 112.04098145 -166.64654785 111.3031543 -166.06640625 110.54296875 C-165.3230603 109.5533313 -165.3230603 109.5533313 -164.56469727 108.54370117 C-162.67949158 106.68379236 -161.64497053 106.14865755 -159 106 C-157.09985352 107.01293945 -157.09985352 107.01293945 -155.12890625 108.61328125 C-154.39631592 109.1969043 -153.66372559 109.78052734 -152.90893555 110.38183594 C-151.74744995 111.33751465 -151.74744995 111.33751465 -150.5625 112.3125 C-148.93515253 113.6162059 -147.3075469 114.91958962 -145.6796875 116.22265625 C-144.88143555 116.8686377 -144.08318359 117.51461914 -143.26074219 118.18017578 C-140.27273283 120.58542651 -137.23723908 122.92389555 -134.1875 125.25 C-133.17171875 126.02988281 -132.1559375 126.80976563 -131.109375 127.61328125 C-130.08328125 128.40089844 -129.0571875 129.18851563 -128 130 C-126.81755362 130.90995524 -125.63526633 131.82011724 -124.453125 132.73046875 C-123.5710437 133.40964355 -123.5710437 133.40964355 -122.67114258 134.10253906 C-121.03984873 135.35868816 -119.4085949 136.61488922 -117.77734375 137.87109375 C-116.86082031 138.57363281 -115.94429688 139.27617187 -115 140 C-114.30003906 140.60972656 -113.60007812 141.21945312 -112.87890625 141.84765625 C-111.08314285 143.21876648 -111.08314285 143.21876648 -109.03588867 142.75073242 C-105.53736356 141.46065391 -103.83522125 138.1947324 -101.75 135.25 C-100.68092318 133.78165161 -99.6105432 132.3142514 -98.5390625 130.84765625 C-97.96833008 130.06148926 -97.39759766 129.27532227 -96.80957031 128.46533203 C-93.64675141 124.15635399 -90.37871481 119.92798432 -87.125 115.6875 C-81.97049913 108.94648075 -76.88569432 102.1610146 -71.875 95.3125 C-66.78985022 88.36375431 -61.56425831 81.54306231 -56.24951172 74.76879883 C-52.06528749 69.41735939 -48.00810819 63.98430875 -44 58.5 C-39.43317229 52.25119333 -34.77741923 46.08932537 -30 40 C-23.34283917 31.51195639 -16.94552987 22.84702614 -10.57470703 14.14306641 C-7.08909522 9.39939192 -3.54540671 4.6990708 0 0 Z " fill="#FEFEFE" transform="translate(332,141)"/>
</svg>
