<?xml version="1.0" encoding="UTF-8"?>
<svg version="1.1" xmlns="http://www.w3.org/2000/svg" width="1024" height="1024">
<path d="M0 0 C1.26724915 -0.00705963 2.53449829 -0.01411926 3.84014893 -0.02139282 C7.90779708 -0.03890782 11.97529077 -0.04608507 16.04296875 -0.046875 C16.73710247 -0.04716957 17.43123619 -0.04746414 18.14640427 -0.04776764 C39.31918799 -0.04921876 60.22713468 0.22577303 81.23046875 3.203125 C82.30672516 3.35231384 82.30672516 3.35231384 83.40472412 3.5045166 C176.4860621 16.43490241 266.24138142 53.90145838 341.00537109 117.41650391 C343.0895279 119.22553259 345.18990478 121.01121094 347.31152344 122.77612305 C356.13316476 130.15202132 364.36036597 138.02252271 372.46411133 146.17602539 C374.55132067 148.27402008 376.64910465 150.36101615 378.74804688 152.44726562 C385.33725119 159.03034371 391.69382852 165.61726044 397.44702148 172.9543457 C399.20582694 175.17205371 401.05655791 177.25316771 402.98046875 179.328125 C409.19117953 186.24263402 414.6555892 193.77614845 420.23046875 201.203125 C420.70919434 201.83524902 421.18791992 202.46737305 421.68115234 203.11865234 C473.49194119 271.57962005 505.91586004 354.70740215 519.43359375 484.09375 C519.44065338 485.38470078 519.44771301 486.67565155 519.45498657 488.00572205 C519.47453104 492.15486208 519.47967899 496.30394326 519.48046875 500.453125 C519.48091061 501.51400518 519.48091061 501.51400518 519.48136139 502.59631729 C519.48279753 523.93254356 519.28425227 545.03893546 516.23046875 566.203125 C516.13100952 566.90260254 516.03155029 567.60208008 515.92907715 568.32275391 C503.27899935 656.82942542 469.55762479 742.24494144 413.23046875 812.203125 C412.12099118 813.59887681 411.01161881 814.99471224 409.90234375 816.390625 C404.35953763 823.32334818 398.69400105 830.07975461 392.64453125 836.578125 C391.36220799 837.97249592 390.08567769 839.37331439 388.8581543 840.81616211 C383.43396616 847.18595109 377.5283934 853.05643271 371.60620117 858.95776367 C369.79685942 860.76174585 367.99292556 862.57101165 366.18945312 864.38085938 C360.37324635 870.20072146 354.53551905 875.90761964 348.23046875 881.203125 C347.22044687 882.07968481 346.21128573 882.95723775 345.203125 883.8359375 C336.4733043 891.31194503 327.42077911 898.30446369 318.23046875 905.203125 C317.60414551 905.6775 316.97782227 906.151875 316.33251953 906.640625 C247.89979038 958.42954338 165.88295121 989.59426089 81.23046875 1001.203125 C79.32612061 1001.47213623 79.32612061 1001.47213623 77.38330078 1001.74658203 C37.64124383 1007.10189467 -6.10525559 1006.84820728 -45.76953125 1001.203125 C-47.04602539 1001.03151855 -48.32251953 1000.85991211 -49.63769531 1000.68310547 C-98.45469665 994.08721201 -145.97974672 980.88750564 -190.76953125 960.203125 C-191.79175781 959.73116699 -192.81398438 959.25920898 -193.8671875 958.77294922 C-238.85429533 937.85946397 -280.55744454 910.94053981 -317.2578125 877.46875 C-318.60783225 876.25100279 -319.9635981 875.0388616 -321.35131836 873.86425781 C-327.83385398 868.34244824 -333.82453806 862.33421274 -339.84155273 856.31640625 C-341.69430593 854.46583533 -343.55491831 852.62342424 -345.41601562 850.78125 C-351.6178611 844.60797158 -357.51026909 838.3934147 -362.92895508 831.51123047 C-364.71045774 829.27720392 -366.57748423 827.17292336 -368.51953125 825.078125 C-374.73024203 818.16361598 -380.1946517 810.63010155 -385.76953125 803.203125 C-386.24825684 802.57100098 -386.72698242 801.93887695 -387.22021484 801.28759766 C-447.05197869 722.2279936 -484.61669584 619.64849664 -484.97265625 520.05859375 C-484.97971588 518.74271271 -484.98677551 517.42683167 -484.99404907 516.07107544 C-485.01358916 511.84425301 -485.01874122 507.61748836 -485.01953125 503.390625 C-485.01982582 502.67049099 -485.02012039 501.95035698 -485.02042389 501.20840073 C-485.02182245 480.05808223 -484.83623595 459.17685019 -481.76953125 438.203125 C-481.56813635 436.75856253 -481.36748871 435.31389574 -481.16748047 433.86914062 C-468.09945936 340.54259849 -429.57926392 249.86852025 -367.55615234 178.42822266 C-365.74712366 176.34406585 -363.96144531 174.24368897 -362.1965332 172.12207031 C-354.82063493 163.30042899 -346.95013354 155.07322778 -338.79663086 146.96948242 C-336.69863617 144.88227308 -334.6116401 142.7844891 -332.52539062 140.68554688 C-325.94231254 134.09634256 -319.35539581 127.73976523 -312.01831055 121.98657227 C-309.80060254 120.22776681 -307.71948854 118.37703584 -305.64453125 116.453125 C-298.73002223 110.24241422 -291.1965078 104.77800455 -283.76953125 99.203125 C-283.13740723 98.72439941 -282.5052832 98.24567383 -281.85400391 97.75244141 C-212.84712633 45.52851172 -129.13290963 13.35198811 -43.45703125 2.953125 C-42.77274048 2.86995026 -42.08844971 2.78677551 -41.38342285 2.70108032 C-27.59697381 1.04629883 -13.89152628 0.05184556 0 0 Z " fill="#2980B9" transform="translate(494.76953125,9.796875)"/>
<path d="M0 0 C38.28 0 76.56 0 116 0 C116 48.84 116 97.68 116 148 C151.64 148 187.28 148 224 148 C222.08025798 151.83948403 219.84986706 154.68612854 217.0625 157.875 C213.08514515 162.49420312 209.23543685 167.18316394 205.5 172 C201.93320251 176.59122892 198.28169808 181.08410411 194.5 185.5 C190.30928159 190.39645346 186.29163821 195.4007471 182.3359375 200.48828125 C178.0595134 205.96933186 173.63406491 211.3211285 169.19873047 216.67382812 C165.50067325 221.14759518 161.87521363 225.66789721 158.3125 230.25 C154.37123892 235.31733567 150.29136571 240.23831234 146.11767578 245.11523438 C142.87589579 248.92045294 139.75649715 252.80446596 136.6875 256.75 C132.58119313 262.02742499 128.3854311 267.22117721 124.125 272.375 C123.5357373 273.08793213 122.94647461 273.80086426 122.33935547 274.53540039 C121.74912598 275.24946045 121.15889648 275.96352051 120.55078125 276.69921875 C113.04938033 285.77511432 105.61323342 294.90005089 98.375 304.1875 C94.84766975 308.71335956 91.23027445 313.13998182 87.5 317.5 C82.79704044 322.99803725 78.30570337 328.63718962 73.859375 334.34375 C70.71139287 338.38166801 67.51432586 342.37972152 64.3125 346.375 C63.51791382 347.36669189 63.51791382 347.36669189 62.70727539 348.37841797 C61.47202378 349.91935176 60.23609127 351.45973968 59 353 C55.06855278 351.68951759 53.58418109 349.19441865 51.1875 346 C50.20375759 344.71726396 49.21798586 343.43608234 48.23046875 342.15625 C47.70759277 341.47820312 47.1847168 340.80015625 46.64599609 340.1015625 C43.83341247 336.51053316 40.91426593 333.00860706 38 329.5 C33.69517131 324.3061687 29.45327674 319.07556545 25.3125 313.75 C21.80731882 309.24333848 18.21221519 304.83769264 14.5 300.5 C10.78777751 296.16229883 7.19286104 291.75652791 3.6875 287.25 C-0.41880687 281.97257501 -4.6145689 276.77882279 -8.875 271.625 C-9.4642627 270.91206787 -10.05352539 270.19913574 -10.66064453 269.46459961 C-11.54598877 268.39350952 -11.54598877 268.39350952 -12.44921875 267.30078125 C-19.95061967 258.22488568 -27.38676658 249.09994911 -34.625 239.8125 C-38.58884733 234.72655254 -42.68989353 229.78366972 -46.88208008 224.88500977 C-50.12398446 221.07974489 -53.24343227 217.19562479 -56.3125 213.25 C-60.41880687 207.97257501 -64.6145689 202.77882279 -68.875 197.625 C-69.4642627 196.91206787 -70.05352539 196.19913574 -70.66064453 195.46459961 C-71.25087402 194.75053955 -71.84110352 194.03647949 -72.44921875 193.30078125 C-80.92621033 183.04452497 -89.28533617 172.7007105 -97.4765625 162.21484375 C-100.48362385 158.37018331 -103.55537762 154.57826357 -106.63671875 150.79296875 C-108 149 -108 149 -108 148 C-72.36 148 -36.72 148 0 148 C0 99.16 0 50.32 0 0 Z " fill="#FEFEFE" transform="translate(454,293)"/>
<path d="M0 0 C115.5 0 231 0 350 0 C350 16.5 350 33 350 50 C234.5 50 119 50 0 50 C0 33.5 0 17 0 0 Z " fill="#FEFEFE" transform="translate(337,681)"/>
</svg>
