<?xml version="1.0" encoding="UTF-8"?>
<svg version="1.1" xmlns="http://www.w3.org/2000/svg" width="1057" height="1057">
<path d="M0 0 C1.34910618 -0.00701915 2.69821201 -0.014106 4.0473175 -0.02125549 C8.33884145 -0.04067628 12.63031155 -0.0456897 16.921875 -0.046875 C18.01750322 -0.04753778 18.01750322 -0.04753778 19.13526535 -0.04821396 C40.78689522 -0.05508798 62.18769036 0.17660635 83.671875 3.203125 C84.99408023 3.38228224 86.31634797 3.56097864 87.63867188 3.73925781 C180.91135407 16.46803101 268.36989932 52.83218905 357.8203125 122.75390625 C360.64045024 125.17613414 363.51952107 127.50544231 366.421875 129.828125 C370.7536346 133.34885849 374.68531239 137.10985299 378.578125 141.10546875 C380.4416172 142.97243762 382.34634353 144.68893102 384.359375 146.390625 C392.77517728 153.62348319 400.74186616 161.69182363 407.91015625 170.16015625 C409.76240174 172.3081039 411.6798038 174.38879093 413.60986328 176.46679688 C419.22121865 182.51478166 424.55173903 188.73078695 429.671875 195.203125 C430.18621094 195.85023438 430.70054687 196.49734375 431.23046875 197.1640625 C488.31098717 269.14088249 526.34724033 354.00737802 546.875 510.62890625 C546.88202149 511.97658318 546.88910831 513.32425977 546.89625549 514.67193604 C546.91565043 518.95317058 546.92068921 523.23435095 546.921875 527.515625 C546.92231686 528.24465405 546.92275871 528.97368309 546.92321396 529.72480392 C546.9300922 551.35701204 546.69567907 572.73821024 543.671875 594.203125 C543.49271776 595.52533023 543.31402136 596.84759797 543.13574219 598.16992188 C530.40696899 691.44260407 494.04281095 778.90114932 424.12109375 868.3515625 C421.69886586 871.17170024 419.36955769 874.05077107 417.046875 876.953125 C413.52614151 881.2848846 409.76514701 885.21656239 405.76953125 889.109375 C403.90256238 890.9728672 402.18606898 892.87759353 400.484375 894.890625 C393.25151681 903.30642728 385.18317637 911.27311616 376.71484375 918.44140625 C374.5668961 920.29365174 372.48620907 922.2110538 370.40820312 924.14111328 C364.36021834 929.75246865 358.14421305 935.08298903 351.671875 940.203125 C351.02476562 940.71746094 350.37765625 941.23179687 349.7109375 941.76171875 C274.91089953 1001.08116278 185.4686098 1040.65482075 36.34375 1057.40625 C34.99464382 1057.41326915 33.64553799 1057.420356 32.2964325 1057.42750549 C28.00490855 1057.44692628 23.71343845 1057.4519397 19.421875 1057.453125 C18.69145618 1057.45356686 17.96103737 1057.45400871 17.20848465 1057.45446396 C-4.44314522 1057.46133798 -25.84394036 1057.22964365 -47.328125 1054.203125 C-48.65033023 1054.02396776 -49.97259797 1053.84527136 -51.29492188 1053.66699219 C-144.56760407 1040.93821899 -232.02614932 1004.57406095 -321.4765625 934.65234375 C-324.29670024 932.23011586 -327.17577107 929.90080769 -330.078125 927.578125 C-334.4098846 924.05739151 -338.34156239 920.29639701 -342.234375 916.30078125 C-344.0978672 914.43381238 -346.00259353 912.71731898 -348.015625 911.015625 C-356.43142728 903.78276681 -364.39811616 895.71442637 -371.56640625 887.24609375 C-373.41865174 885.0981461 -375.3360538 883.01745907 -377.26611328 880.93945312 C-382.87746865 874.89146834 -388.20798903 868.67546305 -393.328125 862.203125 C-393.84246094 861.55601562 -394.35679687 860.90890625 -394.88671875 860.2421875 C-451.96723717 788.26536751 -490.00349033 703.39887198 -510.53125 546.77734375 C-510.53827149 545.42966682 -510.54535831 544.08199023 -510.55250549 542.73431396 C-510.57190043 538.45307942 -510.57693921 534.17189905 -510.578125 529.890625 C-510.57856686 529.16159595 -510.57900871 528.43256691 -510.57946396 527.68144608 C-510.5863422 506.04923796 -510.35192907 484.66803976 -507.328125 463.203125 C-507.14896776 461.88091977 -506.97027136 460.55865203 -506.79199219 459.23632812 C-494.06321899 365.96364593 -457.69906095 278.50510068 -387.77734375 189.0546875 C-385.35511586 186.23454976 -383.02580769 183.35547893 -380.703125 180.453125 C-377.18239151 176.1213654 -373.42139701 172.18968761 -369.42578125 168.296875 C-367.55881238 166.4333828 -365.84231898 164.52865647 -364.140625 162.515625 C-356.90776681 154.09982272 -348.83942637 146.13313384 -340.37109375 138.96484375 C-338.2231461 137.11259826 -336.14245907 135.1951962 -334.06445312 133.26513672 C-328.01646834 127.65378135 -321.80046305 122.32326097 -315.328125 117.203125 C-314.68101562 116.68878906 -314.03390625 116.17445312 -313.3671875 115.64453125 C-238.56714953 56.32508722 -149.1248598 16.75142925 0 0 Z " fill="#00A2E9" transform="translate(510.328125,-0.203125)"/>
<path d="M0 0 C1.34910618 -0.00701915 2.69821201 -0.014106 4.0473175 -0.02125549 C8.33884145 -0.04067628 12.63031155 -0.0456897 16.921875 -0.046875 C18.01750322 -0.04753778 18.01750322 -0.04753778 19.13526535 -0.04821396 C40.78689522 -0.05508798 62.18769036 0.17660635 83.671875 3.203125 C84.99408023 3.38228224 86.31634797 3.56097864 87.63867188 3.73925781 C180.91135407 16.46803101 268.36989932 52.83218905 357.8203125 122.75390625 C360.64045024 125.17613414 363.51952107 127.50544231 366.421875 129.828125 C370.7536346 133.34885849 374.68531239 137.10985299 378.578125 141.10546875 C380.4416172 142.97243762 382.34634353 144.68893102 384.359375 146.390625 C392.77517728 153.62348319 400.74186616 161.69182363 407.91015625 170.16015625 C409.76240174 172.3081039 411.6798038 174.38879093 413.60986328 176.46679688 C419.22121865 182.51478166 424.55173903 188.73078695 429.671875 195.203125 C430.18621094 195.85023438 430.70054687 196.49734375 431.23046875 197.1640625 C488.31098717 269.14088249 526.34724033 354.00737802 546.875 510.62890625 C546.88202149 511.97658318 546.88910831 513.32425977 546.89625549 514.67193604 C546.91565043 518.95317058 546.92068921 523.23435095 546.921875 527.515625 C546.92231686 528.24465405 546.92275871 528.97368309 546.92321396 529.72480392 C546.9300922 551.35701204 546.69567907 572.73821024 543.671875 594.203125 C543.49271776 595.52533023 543.31402136 596.84759797 543.13574219 598.16992188 C530.40696899 691.44260407 494.04281095 778.90114932 424.12109375 868.3515625 C421.69886586 871.17170024 419.36955769 874.05077107 417.046875 876.953125 C413.52614151 881.2848846 409.76514701 885.21656239 405.76953125 889.109375 C403.90256238 890.9728672 402.18606898 892.87759353 400.484375 894.890625 C393.25151681 903.30642728 385.18317637 911.27311616 376.71484375 918.44140625 C374.5668961 920.29365174 372.48620907 922.2110538 370.40820312 924.14111328 C364.36021834 929.75246865 358.14421305 935.08298903 351.671875 940.203125 C351.02476562 940.71746094 350.37765625 941.23179687 349.7109375 941.76171875 C274.91089953 1001.08116278 185.4686098 1040.65482075 36.34375 1057.40625 C34.99464382 1057.41326915 33.64553799 1057.420356 32.2964325 1057.42750549 C28.00490855 1057.44692628 23.71343845 1057.4519397 19.421875 1057.453125 C18.69145618 1057.45356686 17.96103737 1057.45400871 17.20848465 1057.45446396 C-4.44314522 1057.46133798 -25.84394036 1057.22964365 -47.328125 1054.203125 C-48.65033023 1054.02396776 -49.97259797 1053.84527136 -51.29492188 1053.66699219 C-144.56760407 1040.93821899 -232.02614932 1004.57406095 -321.4765625 934.65234375 C-324.29670024 932.23011586 -327.17577107 929.90080769 -330.078125 927.578125 C-334.4098846 924.05739151 -338.34156239 920.29639701 -342.234375 916.30078125 C-344.0978672 914.43381238 -346.00259353 912.71731898 -348.015625 911.015625 C-356.43142728 903.78276681 -364.39811616 895.71442637 -371.56640625 887.24609375 C-373.41865174 885.0981461 -375.3360538 883.01745907 -377.26611328 880.93945312 C-382.87746865 874.89146834 -388.20798903 868.67546305 -393.328125 862.203125 C-393.84246094 861.55601562 -394.35679687 860.90890625 -394.88671875 860.2421875 C-451.96723717 788.26536751 -490.00349033 703.39887198 -510.53125 546.77734375 C-510.53827149 545.42966682 -510.54535831 544.08199023 -510.55250549 542.73431396 C-510.57190043 538.45307942 -510.57693921 534.17189905 -510.578125 529.890625 C-510.57856686 529.16159595 -510.57900871 528.43256691 -510.57946396 527.68144608 C-510.5863422 506.04923796 -510.35192907 484.66803976 -507.328125 463.203125 C-507.14896776 461.88091977 -506.97027136 460.55865203 -506.79199219 459.23632812 C-494.06321899 365.96364593 -457.69906095 278.50510068 -387.77734375 189.0546875 C-385.35511586 186.23454976 -383.02580769 183.35547893 -380.703125 180.453125 C-377.18239151 176.1213654 -373.42139701 172.18968761 -369.42578125 168.296875 C-367.55881238 166.4333828 -365.84231898 164.52865647 -364.140625 162.515625 C-356.90776681 154.09982272 -348.83942637 146.13313384 -340.37109375 138.96484375 C-338.2231461 137.11259826 -336.14245907 135.1951962 -334.06445312 133.26513672 C-328.01646834 127.65378135 -321.80046305 122.32326097 -315.328125 117.203125 C-314.68101562 116.68878906 -314.03390625 116.17445312 -313.3671875 115.64453125 C-238.56714953 56.32508722 -149.1248598 16.75142925 0 0 Z M-37.328125 50.203125 C-38.33879028 50.30497101 -38.33879028 50.30497101 -39.36987305 50.40887451 C-69.19281857 53.44584755 -98.81053765 59.97486454 -127.328125 69.203125 C-128.35486328 69.53393066 -129.38160156 69.86473633 -130.43945312 70.20556641 C-194.70769073 91.15030018 -253.83621033 125.39234737 -303.78686523 170.8972168 C-305.39308959 172.35468524 -307.00581743 173.80504656 -308.62744141 175.24536133 C-314.79262418 180.72630175 -320.69674994 186.41991423 -326.515625 192.265625 C-327.36576172 193.11189453 -328.21589844 193.95816406 -329.09179688 194.83007812 C-334.04651693 199.79245025 -338.77576907 204.87105628 -343.328125 210.203125 C-344.2774181 211.28623353 -345.22788578 212.36831405 -346.1796875 213.44921875 C-353.9806847 222.39247004 -361.24602786 231.68327335 -368.328125 241.203125 C-369.14265137 242.29415527 -369.14265137 242.29415527 -369.97363281 243.40722656 C-409.37314073 296.38469919 -437.23723951 357.79710074 -451.64892578 422.17675781 C-452.09220751 424.15192689 -452.54335287 426.1253523 -453.00341797 428.09667969 C-456.92069121 444.888283 -459.06406663 461.75736729 -460.95336914 478.87036133 C-461.24441543 481.45868243 -461.55919913 484.03941459 -461.90234375 486.62109375 C-469.04095495 546.67711643 -461.04591102 612.82752345 -442.328125 670.203125 C-441.93109375 671.42708984 -441.5340625 672.65105469 -441.125 673.91210938 C-419.67622925 739.65744374 -386.09412163 799.65365667 -339.46875 850.84375 C-338.11032998 852.34098666 -336.7648708 853.85016908 -335.4375 855.375 C-330.11648028 861.45018 -324.46587087 867.17232999 -318.765625 872.890625 C-317.96205566 873.69878662 -317.15848633 874.50694824 -316.33056641 875.33959961 C-311.4900434 880.16771611 -306.51653088 884.75370454 -301.328125 889.203125 C-300.17148747 890.2246526 -299.01649557 891.24804697 -297.86328125 892.2734375 C-288.68200801 900.37618373 -279.15991789 907.90744057 -269.328125 915.203125 C-268.60222168 915.74469238 -267.87631836 916.28625977 -267.12841797 916.84423828 C-214.06285089 956.31226664 -152.84577481 983.8253477 -88.45117188 998.49169922 C-86.43547369 998.95087249 -84.4210375 999.41563831 -82.40820312 999.88720703 C-6.02894188 1017.69767649 82.10325134 1014.88845798 159.671875 989.203125 C160.8362207 988.82172363 162.00056641 988.44032227 163.20019531 988.04736328 C181.74291499 981.96267931 199.87150333 975.244042 217.671875 967.203125 C218.65446289 966.76000977 219.63705078 966.31689453 220.64941406 965.86035156 C249.65946574 952.65291533 277.13276288 936.25184622 302.671875 917.203125 C303.80419113 916.36911733 304.9369663 915.53573235 306.0703125 914.703125 C312.77619624 909.73835761 319.27805357 904.56290523 325.671875 899.203125 C326.20006836 898.76129883 326.72826172 898.31947266 327.27246094 897.86425781 C339.93857249 887.2389208 351.95632129 875.98999041 363.671875 864.328125 C364.71275269 863.29425659 364.71275269 863.29425659 365.7746582 862.23950195 C370.2771195 857.72290761 374.51192776 853.03474315 378.671875 848.203125 C379.69362356 847.04668266 380.71701179 845.89168654 381.7421875 844.73828125 C389.84493373 835.55700801 397.37619057 826.03491789 404.671875 816.203125 C405.21344238 815.47722168 405.75500977 814.75131836 406.31298828 814.00341797 C434.85524789 775.62776924 456.5245564 733.09282355 472.61425781 688.14111328 C473.51761797 685.63164048 474.44218811 683.13238019 475.3828125 680.63671875 C499.90031332 614.92255443 505.49378436 538.27958115 496.05712891 469.15136719 C495.69527814 466.38222277 495.38253092 463.61313383 495.08984375 460.8359375 C492.21546325 434.5754245 485.79589139 408.30832746 477.671875 383.203125 C477.1756665 381.66301758 477.1756665 381.66301758 476.66943359 380.09179688 C465.03668178 344.39707448 449.27773967 310.20469522 429.671875 278.203125 C428.89481201 276.92405273 428.89481201 276.92405273 428.10205078 275.61914062 C413.03019039 250.88831412 395.30381575 227.96205645 375.8125 206.5625 C374.45407998 205.06526334 373.1086208 203.55608092 371.78125 202.03125 C366.46023028 195.95607 360.80962087 190.23392001 355.109375 184.515625 C353.904021 183.30338257 353.904021 183.30338257 352.67431641 182.06665039 C347.8337934 177.23853389 342.86028088 172.65254546 337.671875 168.203125 C336.51523747 167.1815974 335.36024557 166.15820303 334.20703125 165.1328125 C325.02575801 157.03006627 315.50366789 149.49880943 305.671875 142.203125 C304.94597168 141.66155762 304.22006836 141.11999023 303.47216797 140.56201172 C285.72087002 127.35931231 267.03758848 115.8780706 247.671875 105.203125 C246.32681885 104.460625 246.32681885 104.460625 244.95458984 103.703125 C221.48921473 90.85592622 196.95933469 80.96448236 171.70874023 72.2644043 C168.81772435 71.2540943 165.94797021 70.19760405 163.078125 69.12890625 C100.09254534 46.16417206 28.69741011 43.45736117 -37.328125 50.203125 Z " fill="#FDFDFD" transform="translate(510.328125,-0.203125)"/>
<path d="M0 0 C2.61309305 1.97762388 4.74635167 3.89272648 6.86328125 6.41015625 C7.34667969 6.96574219 7.83007812 7.52132813 8.328125 8.09375 C13.62525049 14.48769206 17.76376543 21.61120521 22.01953125 28.71484375 C24.02455328 32.05927021 26.10246161 35.34603504 28.21875 38.62109375 C31.91839313 44.40688814 35.29628459 50.36049925 38.65655518 56.34677124 C45.43991582 68.45707119 45.43991582 68.45707119 52.98828125 80.09765625 C79.86534001 118.80890134 79.86534001 118.80890134 80.11328125 136.72265625 C80.15195312 138.38748047 80.15195312 138.38748047 80.19140625 140.0859375 C79.17150414 150.41851721 69.92834782 157.84075633 62.37695312 164.09008789 C56.07448917 169.19976011 49.6353614 174.12675171 43.17578125 179.03515625 C23.29128702 193.18049776 23.29128702 193.18049776 12.86328125 214.41015625 C10.99503431 233.23101434 19.2842856 248.1939907 27.42822266 264.52978516 C28.62168507 266.92523761 29.80064544 269.3265066 30.96875 271.734375 C49.88652727 310.50910998 72.50856174 347.65546947 95.03466797 384.42431641 C96.63999269 387.04556092 98.23854094 389.67079722 99.8359375 392.296875 C107.14980522 404.24997307 115.26110206 415.18561359 124.86328125 425.41015625 C125.435625 426.05855469 126.00796875 426.70695312 126.59765625 427.375 C132.02432999 433.27973786 140.17259487 438.9470644 148.359375 439.61328125 C168.69073229 439.93728694 188.73198987 430.06995594 206.9230957 421.82397461 C217.25092298 417.18796083 228.53222071 412.65246364 239.96484375 416.03125 C249.32088124 420.83743364 255.06849261 430.37601088 260.11328125 439.16015625 C261.42807845 441.40382574 262.74318628 443.64731324 264.05859375 445.890625 C264.7021582 446.99712402 265.34572266 448.10362305 266.00878906 449.24365234 C268.14075553 452.88393737 270.33174721 456.48499147 272.53198242 460.08422852 C277.9616453 468.98923974 283.00430901 478.06957089 287.92919922 487.26220703 C291.7278992 494.34743549 295.63502148 501.36182744 299.61328125 508.34765625 C323.26017093 550.02881819 323.26017093 550.02881819 320.86328125 564.41015625 C316.91285492 578.44172518 302.0576745 591.0492501 291.33984375 600.27734375 C289.3868566 601.95925382 287.4465966 603.65290531 285.51171875 605.35546875 C277.17961109 612.66709391 268.70430032 619.72132489 259.86328125 626.41015625 C259.2712793 626.86052246 258.67927734 627.31088867 258.06933594 627.77490234 C245.45090369 637.30860169 234.09474349 643.73713598 217.86328125 642.41015625 C195.78541054 638.05560135 176.49513654 623.22609052 160.6015625 608.0078125 C158.51119047 606.02479195 156.40176957 604.13957345 154.21777344 602.26513672 C149.78317592 598.39385864 145.60854202 594.29984434 141.453125 590.1328125 C140.68198868 589.3626329 139.91085236 588.59245331 139.11634827 587.79893494 C137.49747972 586.18074252 135.87985574 584.56130413 134.26342773 582.94067383 C131.80759407 580.47948393 129.3464676 578.02367816 126.88476562 575.56835938 C125.30306472 573.98599758 123.72167408 572.40332558 122.140625 570.8203125 C121.41439438 570.09610611 120.68816376 569.37189972 119.93992615 568.62574768 C115.94146359 564.60913441 112.10873339 560.50305424 108.417099 556.2020874 C105.8603852 553.2535723 103.16571608 550.43608127 100.48828125 547.59765625 C95.86181451 542.65401013 91.46683671 537.60113565 87.234375 532.3125 C84.37701572 528.8149416 81.40385072 525.42982011 78.42578125 522.03515625 C73.0733119 515.90393541 68.01299677 509.61884659 63.13769531 503.10107422 C61.80936226 501.33861546 60.45933646 499.59446724 59.10546875 497.8515625 C50.33758768 486.4827753 42.595813 474.49763759 34.86328125 462.41015625 C33.54702638 460.35927784 32.23061948 458.30849699 30.9140625 456.2578125 C27.57104203 451.04525887 24.23743565 445.82674436 20.90576172 440.60693359 C18.82339984 437.34773608 16.73659793 434.09142255 14.6484375 430.8359375 C-20.84162269 375.49992506 -20.84162269 375.49992506 -33.75585938 349.06567383 C-36.77593385 342.96886169 -40.07991856 337.03932829 -43.40368652 331.10375977 C-57.03824643 306.74677743 -69.13141206 282.05678478 -80.13671875 256.41015625 C-80.61882812 255.28915527 -81.1009375 254.1681543 -81.59765625 253.01318359 C-94.34795331 223.05481516 -104.16729884 191.68242429 -113.13671875 160.41015625 C-113.6330481 158.68261108 -113.6330481 158.68261108 -114.1394043 156.92016602 C-115.14280037 153.41803666 -116.1408284 149.91442675 -117.13671875 146.41015625 C-117.44125977 145.34273193 -117.74580078 144.27530762 -118.05957031 143.17553711 C-121.77609221 130.06515072 -125.05247123 117.1427875 -126.80419922 103.61938477 C-127.03810916 102.06530908 -127.32323622 100.51850956 -127.64501953 98.98022461 C-129.18957119 91.59118267 -129.44467767 84.42425006 -129.39746094 76.88500977 C-129.38671459 74.8468668 -129.39743178 72.80960124 -129.41015625 70.77148438 C-129.38178746 56.28212692 -127.13616574 43.78327244 -117.07421875 32.59765625 C-98.15216333 15.84631282 -68.61352137 9.12390576 -45.13671875 1.41015625 C-44.28899902 1.12350098 -43.4412793 0.8368457 -42.56787109 0.54150391 C-29.35292542 -3.88149059 -12.65721723 -7.84791189 0 0 Z " fill="#FDFDFD" transform="translate(332.13671875,301.58984375)"/>
<path d="M0 0 C0.62667572 0.30496399 1.25335144 0.60992798 1.89901733 0.9241333 C22.65832584 11.04257858 42.05855972 22.29110119 61.0625 35.4375 C61.87122559 35.99501953 62.67995117 36.55253906 63.51318359 37.12695312 C81.44060886 49.52141206 98.56764989 62.60608846 114.69140625 77.28515625 C116.22913754 78.68102106 117.7780623 80.06469097 119.33984375 81.43359375 C124.83331293 86.2689435 130.06697349 91.33661969 135.25 96.5 C135.91531738 97.1607251 136.58063477 97.8214502 137.26611328 98.50219727 C141.1514637 102.39961999 144.84828991 106.40747191 148.44360352 110.57348633 C150.71582221 113.18974175 153.07561349 115.71434105 155.4375 118.25 C160.55270589 123.7943192 165.34583981 129.54948381 170.0625 135.4375 C170.97292701 136.54511935 171.88443843 137.651848 172.796875 138.7578125 C185.05847071 153.7135864 195.83480967 169.60404976 205.72265625 186.2109375 C207.09369117 188.48933372 208.49486659 190.74640143 209.90625 193 C215.88678339 202.57028564 221.21562022 212.2503052 226.0625 222.4375 C226.89686266 224.1746102 227.73151343 225.91158204 228.56640625 227.6484375 C230.71595553 232.13108315 232.84487243 236.62316057 234.96533203 241.11962891 C235.87246743 243.03603822 236.79202395 244.94656255 237.71484375 246.85546875 C248.83367749 270.17113951 256.82684401 294.86513596 263.3671875 319.8046875 C264.21569657 323.01758141 265.09536131 326.22138913 265.98242188 329.42382812 C270.37045219 345.84551499 273.4477748 362.37757027 275.44555664 379.25488281 C275.74933939 381.80695026 276.07018981 384.35647376 276.39257812 386.90625 C279.0522808 408.50152294 279.30002169 430.13887688 279.3125 451.875 C279.31350708 453.10462463 279.31451416 454.33424927 279.31555176 455.60113525 C279.30516032 474.42278717 278.67628966 492.78516858 276.0625 511.4375 C275.9073291 512.62972168 275.7521582 513.82194336 275.59228516 515.05029297 C275.12562551 518.62040579 274.6332635 522.18558749 274.125 525.75 C273.9796582 526.78882324 273.83431641 527.82764648 273.68457031 528.89794922 C271.93075884 540.1568256 268.25950555 550.34218433 259.25 557.75 C251.16198889 562.03188824 242.71623147 564.34010173 233.64453125 561.74609375 C224.99996428 558.19006706 218.11479343 552.98187065 214.0625 544.4375 C210.64283047 535.55835805 211.69816035 526.75653559 213.375 517.5625 C217.55064524 493.75270734 218.35359113 470.32013912 218.375 446.1875 C218.37849457 444.91077423 218.38198914 443.63404846 218.3855896 442.31863403 C218.40690857 428.26289244 218.18221857 414.39752278 216.32998657 400.45233154 C216.07205933 398.50950525 215.83769374 396.56359551 215.60424805 394.61767578 C213.77164943 379.47079185 211.31924023 364.62815841 207.64306641 349.8203125 C207.10828497 347.62541476 206.61269593 345.42703223 206.13671875 343.21875 C198.62563501 308.68943941 184.50201625 276.35038261 168.875 244.8125 C168.50761719 244.06830811 168.14023437 243.32411621 167.76171875 242.55737305 C161.35217024 229.81251249 153.91240544 217.88587949 145.875 206.125 C145.41506653 205.44906799 144.95513306 204.77313599 144.48126221 204.07672119 C131.5586361 185.09960648 117.55302368 167.38746144 102.0625 150.4375 C101.13899417 149.4091493 100.21583504 148.38048718 99.29296875 147.3515625 C92.75798195 140.11264102 85.90210586 133.39689182 78.65185547 126.87841797 C77.10730887 125.47812396 75.58394064 124.05838061 74.06640625 122.62890625 C67.2759737 116.25281281 60.17313378 110.4234724 52.77978516 104.76074219 C51.14748673 103.50298594 49.53072194 102.22798786 47.91796875 100.9453125 C38.97976093 93.90717653 29.61709092 87.60589635 20.0625 81.4375 C19.26344238 80.91784668 18.46438477 80.39819336 17.64111328 79.86279297 C0.4991618 68.76853017 -17.46728774 59.11431565 -36.08129883 50.71923828 C-46.68085821 45.9239193 -55.96303331 40.46783919 -60.9375 29.4375 C-63.33583188 22.01094128 -63.21760538 12.10969162 -60 5 C-55.50516834 -2.5881849 -48.86546678 -8.06856842 -40.52734375 -10.93359375 C-25.99358313 -14.46290817 -12.71724592 -6.21133746 0 0 Z " fill="#FCFDFD" transform="translate(607.9375,170.5625)"/>
<path d="M0 0 C0.67160156 0.33177246 1.34320312 0.66354492 2.03515625 1.00537109 C42.61026766 21.14634041 82.3616067 51.07797298 111.9140625 85.578125 C113.53642853 87.46177095 115.17722435 89.32064236 116.8359375 91.171875 C180.82772883 163.0660881 215.84806259 261.0730916 211.26937866 366.58874512 C211.14301261 368.71596472 211.01423213 370.84304226 210.88305664 372.9699707 C210.68539169 376.22218839 210.50745559 379.47513552 210.33007812 382.72851562 C210.20431447 384.83340474 210.07740359 386.93822569 209.94921875 389.04296875 C209.89908127 389.99729294 209.84894379 390.95161713 209.79728699 391.93486023 C209.02943787 403.6443816 205.89205166 413.70679267 197.125 421.8125 C188.76049059 428.58450577 181.63147292 428.79909764 171 428 C163.450215 426.85646579 158.00334272 421.46382736 153 416 C148.73338076 409.71765513 147.85259528 403.57635521 147.8125 396.0625 C147.79832031 394.87785156 147.78414062 393.69320313 147.76953125 392.47265625 C147.85433341 388.95521025 148.3925426 385.63252399 148.9921875 382.16796875 C150.53979442 371.79188934 150.33476616 361.34320336 150.31567383 350.87353516 C150.31254334 347.2994854 150.33593027 343.72628994 150.36132812 340.15234375 C150.42396363 317.55086329 148.25322536 295.64290064 142.68701172 273.71972656 C141.98768318 270.95124045 141.32255006 268.1759697 140.66015625 265.3984375 C128.09643858 213.80615311 102.07738363 165.72624008 66.3203125 126.54296875 C64.69832348 124.76533432 63.08999545 122.97518179 61.4921875 121.17578125 C57.26383445 116.43666384 53.03597713 111.94522079 48.171875 107.859375 C46.01730572 106.01481569 43.94627022 104.09547435 41.87792969 102.15527344 C31.96435041 92.88585136 21.29064906 84.53236308 10 77 C9.11368896 76.40517822 9.11368896 76.40517822 8.20947266 75.79833984 C-3.88438889 67.71279803 -16.35923225 60.49506424 -29.2578125 53.7734375 C-29.93183105 53.42047607 -30.60584961 53.06751465 -31.30029297 52.70385742 C-33.1177351 51.75644801 -34.94145119 50.82110111 -36.765625 49.88671875 C-42.69437979 46.42827845 -46.40515645 43.12853141 -49.3125 36.875 C-49.80363281 35.84117187 -50.29476562 34.80734375 -50.80078125 33.7421875 C-53.51878283 27.52708292 -54.16685633 21.16734402 -52.31640625 14.55859375 C-48.28467411 4.93931582 -42.56484001 -1.61927296 -33 -6 C-20.5020893 -9.17375966 -11.03487376 -5.57673643 0 0 Z " fill="#FCFDFD" transform="translate(566,272)"/>
<path d="M0 0 C0.75861328 0.47356934 1.51722656 0.94713867 2.29882812 1.43505859 C15.19452354 9.62292745 27.45436831 18.69648673 38.5625 29.1875 C39.82911866 30.27575807 41.09990846 31.35918185 42.375 32.4375 C52.01667827 40.86908909 60.66556163 50.11116808 68.5625 60.1875 C69.14233643 60.89358398 69.72217285 61.59966797 70.31958008 62.32714844 C75.49074299 68.66000884 80.12277643 75.24147846 84.625 82.0625 C85.29337891 83.06152344 85.96175781 84.06054688 86.65039062 85.08984375 C93.87537946 95.9729659 100.22800625 106.97707709 105.5 118.9375 C106.01506104 120.10490723 106.53012207 121.27231445 107.06079102 122.47509766 C122.93450727 159.11818544 129.34498834 196.85117897 129.875 236.5625 C129.904729 237.71395508 129.93445801 238.86541016 129.96508789 240.05175781 C130.03674439 250.58450918 128.19091104 261.23340675 121.26953125 269.5390625 C114.18292596 276.38242047 106.37058186 278.63778964 96.72875977 278.62133789 C88.49876808 278.39535772 82.71804703 275.41040738 76.6875 269.875 C70.31578813 263.0073766 68.43093885 255.72564869 68.3515625 246.55078125 C68.32608064 244.76984509 68.29976214 242.98892074 68.27270508 241.20800781 C68.25946198 240.27557251 68.24621887 239.34313721 68.23257446 238.38244629 C67.84778833 213.77593336 66.09642951 190.76064423 58.5625 167.1875 C58.22460449 166.13006592 58.22460449 166.13006592 57.87988281 165.05126953 C51.5740897 145.89353486 42.192054 127.62746043 30.5625 111.1875 C30.16289063 110.61966797 29.76328125 110.05183594 29.3515625 109.46679688 C24.83795446 103.11290905 19.95403002 97.20324421 14.66796875 91.48046875 C12.80041796 89.44660546 11.0226578 87.36602977 9.25 85.25 C-2.98045994 71.31231339 -18.24613428 60.87475322 -34.00415039 51.33422852 C-42.16417704 46.33086865 -48.64533639 40.12692171 -52.4375 31.1875 C-52.74991935 28.49675317 -52.91475493 26.11679002 -52.875 23.4375 C-52.86887695 22.73520264 -52.86275391 22.03290527 -52.85644531 21.30932617 C-52.61748271 13.30683622 -50.29174938 5.88352642 -44.4375 0.1875 C-29.8083959 -10.97313582 -15.15596668 -9.63108003 0 0 Z " fill="#FCFDFD" transform="translate(531.4375,386.8125)"/>
</svg>
